<svg xmlns="http://www.w3.org/2000/svg" viewBox="0 0 2800 1680" width="2800" height="1680">
<defs>
    <style>
      @import url('https://fonts.googleapis.com/css2?family=Inter:wght@400;500;600;700;800&amp;display=swap');
      text { font-family: 'Inter', system-ui, sans-serif; }
      .title-main { font-size: 25px; font-weight: 800; fill: #0f172a; }
      .title-sub { font-size: 13.5px; font-weight: 500; fill: #475569; }
      .lane-title { font-size: 17px; font-weight: 700; }
      .lane-sub { font-size: 12px; font-weight: 500; fill: #64748b; }
      .phase-pill { font-size: 11px; font-weight: 800; letter-spacing: 0.08em; }
      .phase-title { font-size: 14.5px; font-weight: 700; fill: #1e293b; }
      .card-title { font-size: 13px; font-weight: 700; fill: #0f172a; }
      .card-body { font-size: 11.5px; font-weight: 400; fill: #334155; line-height: 1.45; }
      .badge-txt { font-size: 10px; font-weight: 700; }
      .line-label { font-size: 11px; font-weight: 700; letter-spacing: 0.05em; }
    </style>
    <filter id="card-shadow" x="-5%" y="-5%" width="110%" height="115%">
      <feDropShadow dx="0" dy="2" stdDeviation="3" flood-color="#0f172a" flood-opacity="0.06"/>
    </filter>
    <filter id="header-shadow" x="-2%" y="-2%" width="104%" height="108%">
      <feDropShadow dx="0" dy="3" stdDeviation="5" flood-color="#0f172a" flood-opacity="0.04"/>
    </filter>
    <marker id="arrow-blue" viewBox="0 0 10 10" refX="6" refY="5" markerWidth="6" markerHeight="6" orient="auto-start-reverse">
      <path d="M 0 1 L 10 5 L 0 9 z" fill="#0284c7" />
    </marker>
    <marker id="arrow-orange" viewBox="0 0 10 10" refX="6" refY="5" markerWidth="6" markerHeight="6" orient="auto-start-reverse">
      <path d="M 0 1 L 10 5 L 0 9 z" fill="#ea580c" />
    </marker>
    </defs>
<rect width="2800" height="1680" fill="#f8fafc" />

    <g filter="url(#header-shadow)">
      <rect x="40" y="30" width="2720" height="160" rx="14" fill="#ffffff" stroke="#e2e8f0" stroke-width="1.5"/>
    </g>
    <g transform="translate(70, 68)">
      <rect x="0" y="0" width="165" height="24" rx="6" fill="#e0f2fe" />
      <text x="82" y="16" class="badge-txt" fill="#0369a1" text-anchor="middle">HPHP DESIGN PROPOSAL</text>
      
      <rect x="175" y="0" width="150" height="24" rx="6" fill="#fef3c7" />
      <text x="250" y="16" class="badge-txt" fill="#b45309" text-anchor="middle">SERVICE BLUEPRINT 02</text>

      <rect x="335" y="0" width="165" height="24" rx="6" fill="#dcfce7" />
      <text x="417" y="16" class="badge-txt" fill="#15803d" text-anchor="middle">STRADA B: SWIMLANES</text>

      <text x="0" y="58" class="title-main">Modifica, Disdetta e Riassegnazione Risorse (Modalità Autonoma &amp; Co-Pilota)</text>
      <text x="0" y="85" class="title-sub">Scenario: Renato Ferretti (Paziente 78a) disdice una visita con assistenza di Elena | Requisiti: REQ-02, REQ-05, ID-08, U2-01</text>
    </g>
    

    <g transform="translate(2030, 58)">
      <rect x="0" y="0" width="700" height="105" rx="10" fill="#f1f5f9" stroke="#cbd5e1" stroke-width="1"/>
      <text x="20" y="24" font-size="12" font-weight="700" fill="#334155">LEGENDA CORSIA E LIVELLI OPERATIVI</text>
      
      <rect x="20" y="38" width="14" height="14" rx="3" fill="#8b5cf6" />
      <text x="40" y="50" font-size="11" font-weight="600" fill="#334155">Physical Evidence</text>
      
      <rect x="180" y="38" width="14" height="14" rx="3" fill="#0284c7" />
      <text x="200" y="50" font-size="11" font-weight="600" fill="#334155">Customer Actions (Utente/Caregiver)</text>
      
      <rect x="440" y="38" width="14" height="14" rx="3" fill="#16a34a" />
      <text x="460" y="50" font-size="11" font-weight="600" fill="#334155">Frontstage Actions (UI HPHP)</text>
      
      <rect x="20" y="66" width="14" height="14" rx="3" fill="#d97706" />
      <text x="40" y="78" font-size="11" font-weight="600" fill="#334155">Backstage Actions (Server HPHP)</text>
      
      <rect x="260" y="66" width="14" height="14" rx="3" fill="#dc2626" />
      <text x="280" y="78" font-size="11" font-weight="600" fill="#334155">Support Processes (STS / CUP / PagoPA)</text>

      <line x1="530" y1="73" x2="570" y2="73" stroke="#dc2626" stroke-width="2.5" stroke-dasharray="5 3"/>
      <text x="578" y="77" font-size="10.5" font-weight="700" fill="#dc2626">Line of Visibility</text>
    </g>
    

        <g transform="translate(410, 170)">
          <rect x="0" y="0" width="380" height="42" rx="8" fill="#ffffff" stroke="#cbd5e1" stroke-width="1.2"/>
          <rect x="8" y="8" width="68" height="26" rx="5" fill="#f1f5f9" />
          <text x="42" y="25" class="phase-pill" fill="#475569" text-anchor="middle">FASE 01</text>
          <text x="86" y="26" class="phase-title">Accesso Cruscotto Appuntamenti</text>
        </g>
        

        <g transform="translate(808, 170)">
          <rect x="0" y="0" width="380" height="42" rx="8" fill="#ffffff" stroke="#cbd5e1" stroke-width="1.2"/>
          <rect x="8" y="8" width="68" height="26" rx="5" fill="#f1f5f9" />
          <text x="42" y="25" class="phase-pill" fill="#475569" text-anchor="middle">FASE 02</text>
          <text x="86" y="26" class="phase-title">Scheda Visita &amp; Scelta Disdetta</text>
        </g>
        

        <g transform="translate(1206, 170)">
          <rect x="0" y="0" width="380" height="42" rx="8" fill="#ffffff" stroke="#cbd5e1" stroke-width="1.2"/>
          <rect x="8" y="8" width="68" height="26" rx="5" fill="#f1f5f9" />
          <text x="42" y="25" class="phase-pill" fill="#475569" text-anchor="middle">FASE 03</text>
          <text x="86" y="26" class="phase-title">Trasparenza Policy 2 Giorni</text>
        </g>
        

        <g transform="translate(1604, 170)">
          <rect x="0" y="0" width="380" height="42" rx="8" fill="#ffffff" stroke="#cbd5e1" stroke-width="1.2"/>
          <rect x="8" y="8" width="68" height="26" rx="5" fill="#f1f5f9" />
          <text x="42" y="25" class="phase-pill" fill="#475569" text-anchor="middle">FASE 04</text>
          <text x="86" y="26" class="phase-title">Doppio Consenso Rassicurante</text>
        </g>
        

        <g transform="translate(2002, 170)">
          <rect x="0" y="0" width="380" height="42" rx="8" fill="#ffffff" stroke="#cbd5e1" stroke-width="1.2"/>
          <rect x="8" y="8" width="68" height="26" rx="5" fill="#f1f5f9" />
          <text x="42" y="25" class="phase-pill" fill="#475569" text-anchor="middle">FASE 05</text>
          <text x="86" y="26" class="phase-title">Finestra Timer 10 Minuti</text>
        </g>
        

        <g transform="translate(2400, 170)">
          <rect x="0" y="0" width="380" height="42" rx="8" fill="#ffffff" stroke="#cbd5e1" stroke-width="1.2"/>
          <rect x="8" y="8" width="68" height="26" rx="5" fill="#f1f5f9" />
          <text x="42" y="25" class="phase-pill" fill="#475569" text-anchor="middle">FASE 06</text>
          <text x="86" y="26" class="phase-title">Revoca &amp; Riassegnazione CUP</text>
        </g>
        

        <rect x="40" y="220" width="2720" height="240" rx="12" fill="#faf5ff" stroke="#e9d5ff" stroke-width="1.2"/>
        <g transform="translate(55, 235)">
          <rect x="0" y="0" width="310" height="210" rx="10" fill="#ffffff" stroke="#e9d5ff" stroke-width="1.5"/>
          <rect x="15" y="16" width="36" height="36" rx="8" fill="#f3e8ff"/>
          <circle cx="33" cy="34" r="8" fill="#7e22ce"/>
          <text x="62" y="32" class="lane-title" fill="#7e22ce">Physical Evidence</text>
          <text x="62" y="49" class="lane-sub">Touchpoint tangibili e digitali</text>
          <line x1="15" y1="68" x2="295" y2="68" stroke="#f1f5f9" stroke-width="1"/>
          <text x="15" y="95" font-size="11" fill="#64748b" font-weight="500">Separatori operativi:</text>
          <text x="15" y="115" font-size="10.5" fill="#475569">
            • Confini di sistema
          </text>
        </g>
        

        <rect x="40" y="476" width="2720" height="240" rx="12" fill="#f0f9ff" stroke="#bae6fd" stroke-width="1.2"/>
        <g transform="translate(55, 491)">
          <rect x="0" y="0" width="310" height="210" rx="10" fill="#ffffff" stroke="#bae6fd" stroke-width="1.5"/>
          <rect x="15" y="16" width="36" height="36" rx="8" fill="#e0f2fe"/>
          <circle cx="33" cy="34" r="8" fill="#0369a1"/>
          <text x="62" y="32" class="lane-title" fill="#0369a1">Customer Actions</text>
          <text x="62" y="49" class="lane-sub">Azioni Utente Diretto / Caregiver</text>
          <line x1="15" y1="68" x2="295" y2="68" stroke="#f1f5f9" stroke-width="1"/>
          <text x="15" y="95" font-size="11" fill="#64748b" font-weight="500">Separatori operativi:</text>
          <text x="15" y="115" font-size="10.5" fill="#475569">
            • Linea di Interazione (sotto)
          </text>
        </g>
        

        <rect x="40" y="732" width="2720" height="240" rx="12" fill="#f0fdf4" stroke="#bbf7d0" stroke-width="1.2"/>
        <g transform="translate(55, 747)">
          <rect x="0" y="0" width="310" height="210" rx="10" fill="#ffffff" stroke="#bbf7d0" stroke-width="1.5"/>
          <rect x="15" y="16" width="36" height="36" rx="8" fill="#dcfce7"/>
          <circle cx="33" cy="34" r="8" fill="#15803d"/>
          <text x="62" y="32" class="lane-title" fill="#15803d">Frontstage Actions</text>
          <text x="62" y="49" class="lane-sub">Interfaccia HPHP e feedback visivi</text>
          <line x1="15" y1="68" x2="295" y2="68" stroke="#f1f5f9" stroke-width="1"/>
          <text x="15" y="95" font-size="11" fill="#64748b" font-weight="500">Separatori operativi:</text>
          <text x="15" y="115" font-size="10.5" fill="#475569">
            • Linea di Visibilità (sotto)
          </text>
        </g>
        

        <rect x="40" y="988" width="2720" height="240" rx="12" fill="#fffbeb" stroke="#fde68a" stroke-width="1.2"/>
        <g transform="translate(55, 1003)">
          <rect x="0" y="0" width="310" height="210" rx="10" fill="#ffffff" stroke="#fde68a" stroke-width="1.5"/>
          <rect x="15" y="16" width="36" height="36" rx="8" fill="#fef3c7"/>
          <circle cx="33" cy="34" r="8" fill="#b45309"/>
          <text x="62" y="32" class="lane-title" fill="#b45309">Backstage Actions</text>
          <text x="62" y="49" class="lane-sub">Server HPHP e logiche applicative</text>
          <line x1="15" y1="68" x2="295" y2="68" stroke="#f1f5f9" stroke-width="1"/>
          <text x="15" y="95" font-size="11" fill="#64748b" font-weight="500">Separatori operativi:</text>
          <text x="15" y="115" font-size="10.5" fill="#475569">
            • Interazione Interna (sotto)
          </text>
        </g>
        

        <rect x="40" y="1244" width="2720" height="240" rx="12" fill="#fef2f2" stroke="#fecaca" stroke-width="1.2"/>
        <g transform="translate(55, 1259)">
          <rect x="0" y="0" width="310" height="210" rx="10" fill="#ffffff" stroke="#fecaca" stroke-width="1.5"/>
          <rect x="15" y="16" width="36" height="36" rx="8" fill="#fee2e2"/>
          <circle cx="33" cy="34" r="8" fill="#b91c1c"/>
          <text x="62" y="32" class="lane-title" fill="#b91c1c">Support Processes</text>
          <text x="62" y="49" class="lane-sub">Sistemi regionali: STS, CUP, PagoPA</text>
          <line x1="15" y1="68" x2="295" y2="68" stroke="#f1f5f9" stroke-width="1"/>
          <text x="15" y="95" font-size="11" fill="#64748b" font-weight="500">Separatori operativi:</text>
          <text x="15" y="115" font-size="10.5" fill="#475569">
            • Confini di sistema
          </text>
        </g>
        

    <line x1="390" y1="724" x2="2745" y2="724" stroke="#0284c7" stroke-width="2.5" stroke-dasharray="8 6"/>
    <rect x="395" y="712" width="165" height="24" rx="5" fill="#0284c7"/>
    <text x="477" y="728" class="line-label" fill="#ffffff" text-anchor="middle">LINE OF INTERACTION</text>
    

    <line x1="390" y1="980" x2="2745" y2="980" stroke="#dc2626" stroke-width="3" stroke-dasharray="10 5"/>
    <rect x="395" y="967" width="160" height="26" rx="5" fill="#dc2626"/>
    <text x="475" y="984" class="line-label" fill="#ffffff" text-anchor="middle">LINE OF VISIBILITY</text>
    

    <line x1="390" y1="1236" x2="2745" y2="1236" stroke="#475569" stroke-width="2.5" stroke-dasharray="8 6"/>
    <rect x="395" y="1224" width="215" height="24" rx="5" fill="#475569"/>
    <text x="502" y="1240" class="line-label" fill="#ffffff" text-anchor="middle">LINE OF INTERNAL INTERACTION</text>
    

            <g filter="url(#card-shadow)" transform="translate(410, 235)">
              <rect x="0" y="0" width="380" height="210" rx="10" fill="#ffffff" stroke="#e2e8f0" stroke-width="1.3"/>
              <rect x="14" y="14" width="133.0" height="20" rx="5" fill="#f3e8ff"/>
              <text x="22" y="28" class="badge-txt" fill="#7e22ce">EVIDENZA A SCHERMO</text>
              <text x="14" y="52" class="card-title">Cruscotto Appuntamenti HPHP</text>
              <line x1="14" y1="60" x2="366" y2="60" stroke="#f1f5f9" stroke-width="1.2"/>
            
<circle cx="18" cy="74" r="2.5" fill="#7e22ce"/>
<text x="27" y="78" class="card-body">Elenco unificato delle visite per tutte le AUSL</text>
<text x="27" y="94" class="card-body">regionali.</text>
<circle cx="18" cy="110" r="2.5" fill="#7e22ce"/>
<text x="27" y="114" class="card-body">Badge data: 'Visita Oculistica - Tra 5 giorni'.</text>
<circle cx="18" cy="130" r="2.5" fill="#7e22ce"/>
<text x="27" y="134" class="card-body">Dettaglio sede con orario e indicazioni stradali.</text>
</g>

            <g filter="url(#card-shadow)" transform="translate(808, 235)">
              <rect x="0" y="0" width="380" height="210" rx="10" fill="#ffffff" stroke="#e2e8f0" stroke-width="1.3"/>
              <rect x="14" y="14" width="133.0" height="20" rx="5" fill="#f3e8ff"/>
              <text x="22" y="28" class="badge-txt" fill="#7e22ce">EVIDENZA A SCHERMO</text>
              <text x="14" y="52" class="card-title">Dettaglio Visita &amp; Comandi</text>
              <line x1="14" y1="60" x2="366" y2="60" stroke="#f1f5f9" stroke-width="1.2"/>
            
<circle cx="18" cy="74" r="2.5" fill="#7e22ce"/>
<text x="27" y="78" class="card-body">Pulsanti operativi ad alto contrasto ben distanziati.</text>
<circle cx="18" cy="94" r="2.5" fill="#7e22ce"/>
<text x="27" y="98" class="card-body">Tasto blu: 'Sposta data senza perdere posto'.</text>
<circle cx="18" cy="114" r="2.5" fill="#7e22ce"/>
<text x="27" y="118" class="card-body">Tasto rosso chiaro: 'Disdici appuntamento'.</text>
</g>

            <g filter="url(#card-shadow)" transform="translate(1206, 235)">
              <rect x="0" y="0" width="380" height="210" rx="10" fill="#ffffff" stroke="#e2e8f0" stroke-width="1.3"/>
              <rect x="14" y="14" width="133.0" height="20" rx="5" fill="#f3e8ff"/>
              <text x="22" y="28" class="badge-txt" fill="#7e22ce">EVIDENZA A SCHERMO</text>
              <text x="14" y="52" class="card-title">Modale Informativo Policy</text>
              <line x1="14" y1="60" x2="366" y2="60" stroke="#f1f5f9" stroke-width="1.2"/>
            
<circle cx="18" cy="74" r="2.5" fill="#7e22ce"/>
<text x="27" y="78" class="card-body">Spiegazione chiara: 'Disdici con almeno 2 giorni</text>
<text x="27" y="94" class="card-body">di anticipo'.</text>
<circle cx="18" cy="110" r="2.5" fill="#7e22ce"/>
<text x="27" y="114" class="card-body">Dicitura rassicurante: 'Nessun addebito o penalità'.</text>
<circle cx="18" cy="130" r="2.5" fill="#7e22ce"/>
<text x="27" y="134" class="card-body">Tasto esplicito: 'Ho capito, prosegui'.</text>
</g>

            <g filter="url(#card-shadow)" transform="translate(1604, 235)">
              <rect x="0" y="0" width="380" height="210" rx="10" fill="#ffffff" stroke="#e2e8f0" stroke-width="1.3"/>
              <rect x="14" y="14" width="133.0" height="20" rx="5" fill="#f3e8ff"/>
              <text x="22" y="28" class="badge-txt" fill="#7e22ce">EVIDENZA A SCHERMO</text>
              <text x="14" y="52" class="card-title">Modale Doppio Consenso</text>
              <line x1="14" y1="60" x2="366" y2="60" stroke="#f1f5f9" stroke-width="1.2"/>
            
<circle cx="18" cy="74" r="2.5" fill="#7e22ce"/>
<text x="27" y="78" class="card-body">Domanda diretta: 'Sei sicuro di voler liberare</text>
<text x="27" y="94" class="card-body">il posto?'.</text>
<circle cx="18" cy="110" r="2.5" fill="#7e22ce"/>
<text x="27" y="114" class="card-body">Tasto primario: 'Mantieni il mio appuntamento'</text>
<text x="27" y="130" class="card-body">(default).</text>
<circle cx="18" cy="146" r="2.5" fill="#7e22ce"/>
<text x="27" y="150" class="card-body">Tasto secondario: 'Sì, conferma la cancellazione'.</text>
</g>

            <g filter="url(#card-shadow)" transform="translate(2002, 235)">
              <rect x="0" y="0" width="380" height="210" rx="10" fill="#ffffff" stroke="#e2e8f0" stroke-width="1.3"/>
              <rect x="14" y="14" width="152.5" height="20" rx="5" fill="#ffedd5"/>
              <text x="22" y="28" class="badge-txt" fill="#c2410c">EVIDENZA TEMPORIZZATA</text>
              <text x="14" y="52" class="card-title">Banner Countdown 10 Minuti</text>
              <line x1="14" y1="60" x2="366" y2="60" stroke="#f1f5f9" stroke-width="1.2"/>
            
<circle cx="18" cy="74" r="2.5" fill="#7e22ce"/>
<text x="27" y="78" class="card-body">Banner persistente arancione in cima allo schermo.</text>
<circle cx="18" cy="94" r="2.5" fill="#7e22ce"/>
<text x="27" y="98" class="card-body">Conto alla rovescia animato: 'Tempo per ripensarci:</text>
<text x="27" y="114" class="card-body">09:42'.</text>
<circle cx="18" cy="130" r="2.5" fill="#7e22ce"/>
<text x="27" y="134" class="card-body">Pulsante One-Touch: 'Annulla disdetta e ripristina'.</text>
</g>

            <g filter="url(#card-shadow)" transform="translate(2400, 235)">
              <rect x="0" y="0" width="380" height="210" rx="10" fill="#ffffff" stroke="#e2e8f0" stroke-width="1.3"/>
              <rect x="14" y="14" width="146.0" height="20" rx="5" fill="#f3e8ff"/>
              <text x="22" y="28" class="badge-txt" fill="#7e22ce">EVIDENZA MULTICANALE</text>
              <text x="14" y="52" class="card-title">SMS Conferma &amp; Revoca PagoPA</text>
              <line x1="14" y1="60" x2="366" y2="60" stroke="#f1f5f9" stroke-width="1.2"/>
            
<circle cx="18" cy="74" r="2.5" fill="#7e22ce"/>
<text x="27" y="78" class="card-body">SMS immediato: 'Visita annullata regolarmente'.</text>
<circle cx="18" cy="94" r="2.5" fill="#7e22ce"/>
<text x="27" y="98" class="card-body">Notifica di cortesia inviata al caregiver Elena.</text>
<circle cx="18" cy="114" r="2.5" fill="#7e22ce"/>
<text x="27" y="118" class="card-body">Ricevuta formale di discarico quota ticket.</text>
</g>

            <g filter="url(#card-shadow)" transform="translate(410, 491)">
              <rect x="0" y="0" width="380" height="210" rx="10" fill="#ffffff" stroke="#e2e8f0" stroke-width="1.3"/>
              <rect x="14" y="14" width="152.5" height="20" rx="5" fill="#fce7f3"/>
              <text x="22" y="28" class="badge-txt" fill="#9d174d">RENATO (PAZIENTE 78a)</text>
              <text x="14" y="52" class="card-title">Consultazione Appuntamenti</text>
              <line x1="14" y1="60" x2="366" y2="60" stroke="#f1f5f9" stroke-width="1.2"/>
            
<circle cx="18" cy="74" r="2.5" fill="#0369a1"/>
<text x="27" y="78" class="card-body">Accede alla sezione 'I Miei Appuntamenti'.</text>
<circle cx="18" cy="94" r="2.5" fill="#0369a1"/>
<text x="27" y="98" class="card-body">Trova la visita oculistica pianificata per il</text>
<text x="27" y="114" class="card-body">mese.</text>
<circle cx="18" cy="130" r="2.5" fill="#0369a1"/>
<text x="27" y="134" class="card-body">Tocca la card per aprire la scheda di dettaglio.</text>
</g>

            <g filter="url(#card-shadow)" transform="translate(808, 491)">
              <rect x="0" y="0" width="380" height="210" rx="10" fill="#ffffff" stroke="#e2e8f0" stroke-width="1.3"/>
              <rect x="14" y="14" width="152.5" height="20" rx="5" fill="#fce7f3"/>
              <text x="22" y="28" class="badge-txt" fill="#9d174d">RENATO (PAZIENTE 78a)</text>
              <text x="14" y="52" class="card-title">Valutazione Imprevisto &amp; Scelta</text>
              <line x1="14" y1="60" x2="366" y2="60" stroke="#f1f5f9" stroke-width="1.2"/>
            
<circle cx="18" cy="74" r="2.5" fill="#0369a1"/>
<text x="27" y="78" class="card-body">Realizza di non poter andare per motivi familiari.</text>
<circle cx="18" cy="94" r="2.5" fill="#0369a1"/>
<text x="27" y="98" class="card-body">Valuta l'opzione di modifica o cancellazione.</text>
<circle cx="18" cy="114" r="2.5" fill="#0369a1"/>
<text x="27" y="118" class="card-body">Tocca con sicurezza 'Disdici appuntamento'.</text>
</g>

            <g filter="url(#card-shadow)" transform="translate(1206, 491)">
              <rect x="0" y="0" width="380" height="210" rx="10" fill="#ffffff" stroke="#e2e8f0" stroke-width="1.3"/>
              <rect x="14" y="14" width="152.5" height="20" rx="5" fill="#fce7f3"/>
              <text x="22" y="28" class="badge-txt" fill="#9d174d">RENATO (PAZIENTE 78a)</text>
              <text x="14" y="52" class="card-title">Comprensione delle Regole</text>
              <line x1="14" y1="60" x2="366" y2="60" stroke="#f1f5f9" stroke-width="1.2"/>
            
<circle cx="18" cy="74" r="2.5" fill="#0369a1"/>
<text x="27" y="78" class="card-body">Legge che è entro i termini dei 2 giorni lavorativi.</text>
<circle cx="18" cy="94" r="2.5" fill="#0369a1"/>
<text x="27" y="98" class="card-body">Si rassicura che non riceverà il malus regionale.</text>
<circle cx="18" cy="114" r="2.5" fill="#0369a1"/>
<text x="27" y="118" class="card-body">Prosegue al passaggio di conferma.</text>
</g>

            <g filter="url(#card-shadow)" transform="translate(1604, 491)">
              <rect x="0" y="0" width="380" height="210" rx="10" fill="#ffffff" stroke="#e2e8f0" stroke-width="1.3"/>
              <rect x="14" y="14" width="107.0" height="20" rx="5" fill="#ffedd5"/>
              <text x="22" y="28" class="badge-txt" fill="#c2410c">RENATO &amp; ELENA</text>
              <text x="14" y="52" class="card-title">Conferma Consapevole</text>
              <line x1="14" y1="60" x2="366" y2="60" stroke="#f1f5f9" stroke-width="1.2"/>
            
<circle cx="18" cy="74" r="2.5" fill="#0369a1"/>
<text x="27" y="78" class="card-body">Renato legge la richiesta di conferma protetta.</text>
<circle cx="18" cy="94" r="2.5" fill="#0369a1"/>
<text x="27" y="98" class="card-body">Elena (in vivavoce) lo rassicura sulla correttezza.</text>
<circle cx="18" cy="114" r="2.5" fill="#0369a1"/>
<text x="27" y="118" class="card-body">Renato tocca 'Sì, conferma la cancellazione'.</text>
</g>

            <g filter="url(#card-shadow)" transform="translate(2002, 491)">
              <rect x="0" y="0" width="380" height="210" rx="10" fill="#ffffff" stroke="#e2e8f0" stroke-width="1.3"/>
              <rect x="14" y="14" width="152.5" height="20" rx="5" fill="#ffedd5"/>
              <text x="22" y="28" class="badge-txt" fill="#c2410c">RENATO (PAZIENTE 78a)</text>
              <text x="14" y="52" class="card-title">Gestione Finestra Ripensamento</text>
              <line x1="14" y1="60" x2="366" y2="60" stroke="#f1f5f9" stroke-width="1.2"/>
            
<circle cx="18" cy="74" r="2.5" fill="#0369a1"/>
<text x="27" y="78" class="card-body">Legge il messaggio rassicurante dei 10 minuti.</text>
<circle cx="18" cy="94" r="2.5" fill="#0369a1"/>
<text x="27" y="98" class="card-body">Non tocca 'Annulla': la decisione è definitiva.</text>
<circle cx="18" cy="114" r="2.5" fill="#0369a1"/>
<text x="27" y="118" class="card-body">Chiude serenamente l'applicazione.</text>
</g>

            <g filter="url(#card-shadow)" transform="translate(2400, 491)">
              <rect x="0" y="0" width="380" height="210" rx="10" fill="#ffffff" stroke="#e2e8f0" stroke-width="1.3"/>
              <rect x="14" y="14" width="107.0" height="20" rx="5" fill="#dcfce7"/>
              <text x="22" y="28" class="badge-txt" fill="#15803d">RENATO &amp; ELENA</text>
              <text x="14" y="52" class="card-title">Verifica Ricevuta &amp; Liberazione</text>
              <line x1="14" y1="60" x2="366" y2="60" stroke="#f1f5f9" stroke-width="1.2"/>
            
<circle cx="18" cy="74" r="2.5" fill="#0369a1"/>
<text x="27" y="78" class="card-body">Renato riceve l'SMS di avvenuta cancellazione.</text>
<circle cx="18" cy="94" r="2.5" fill="#0369a1"/>
<text x="27" y="98" class="card-body">Elena riceve notifica push sincronizzata.</text>
<circle cx="18" cy="114" r="2.5" fill="#0369a1"/>
<text x="27" y="118" class="card-body">Lo slot orario viene rimesso a disposizione</text>
<text x="27" y="134" class="card-body">della comunità.</text>
</g>

            <g filter="url(#card-shadow)" transform="translate(410, 747)">
              <rect x="0" y="0" width="380" height="210" rx="10" fill="#ffffff" stroke="#e2e8f0" stroke-width="1.3"/>
              <rect x="14" y="14" width="120.0" height="20" rx="5" fill="#dcfce7"/>
              <text x="22" y="28" class="badge-txt" fill="#15803d">UI HPHP FRONTEND</text>
              <text x="14" y="52" class="card-title">Elenco Unificato Regionale</text>
              <line x1="14" y1="60" x2="366" y2="60" stroke="#f1f5f9" stroke-width="1.2"/>
            
<circle cx="18" cy="74" r="2.5" fill="#15803d"/>
<text x="27" y="78" class="card-body">Aggregazione delle visite da tutte le AUSL regionali</text>
<text x="27" y="94" class="card-body">(REQ-02).</text>
<circle cx="18" cy="110" r="2.5" fill="#15803d"/>
<text x="27" y="114" class="card-body">Badge cromatici per stato e urgenza temporale.</text>
<circle cx="18" cy="130" r="2.5" fill="#15803d"/>
<text x="27" y="134" class="card-body">Pulsante rapido 'Mostra dettagli visita'.</text>
</g>

            <g filter="url(#card-shadow)" transform="translate(808, 747)">
              <rect x="0" y="0" width="380" height="210" rx="10" fill="#ffffff" stroke="#e2e8f0" stroke-width="1.3"/>
              <rect x="14" y="14" width="120.0" height="20" rx="5" fill="#dcfce7"/>
              <text x="22" y="28" class="badge-txt" fill="#15803d">UI HPHP FRONTEND</text>
              <text x="14" y="52" class="card-title">Spaziatura Comandi &amp; Sicurezza</text>
              <line x1="14" y1="60" x2="366" y2="60" stroke="#f1f5f9" stroke-width="1.2"/>
            
<circle cx="18" cy="74" r="2.5" fill="#15803d"/>
<text x="27" y="78" class="card-body">Pulsanti Modifica e Disdici separati da &gt;24px</text>
<text x="27" y="94" class="card-body">(P-02).</text>
<circle cx="18" cy="110" r="2.5" fill="#15803d"/>
<text x="27" y="114" class="card-body">Etichette esplicite per evitare tocchi accidentali.</text>
<circle cx="18" cy="130" r="2.5" fill="#15803d"/>
<text x="27" y="134" class="card-body">Layout a prova di tremolio motorio dell'anziano.</text>
</g>

            <g filter="url(#card-shadow)" transform="translate(1206, 747)">
              <rect x="0" y="0" width="380" height="210" rx="10" fill="#ffffff" stroke="#e2e8f0" stroke-width="1.3"/>
              <rect x="14" y="14" width="120.0" height="20" rx="5" fill="#dcfce7"/>
              <text x="22" y="28" class="badge-txt" fill="#15803d">UI HPHP FRONTEND</text>
              <text x="14" y="52" class="card-title">Spiegazione Plain Language</text>
              <line x1="14" y1="60" x2="366" y2="60" stroke="#f1f5f9" stroke-width="1.2"/>
            
<circle cx="18" cy="74" r="2.5" fill="#15803d"/>
<text x="27" y="78" class="card-body">Traduzione della normativa regionale sui tempi</text>
<text x="27" y="94" class="card-body">utili.</text>
<circle cx="18" cy="110" r="2.5" fill="#15803d"/>
<text x="27" y="114" class="card-body">Indicazione immediata: 'Sei in tempo: costo</text>
<text x="27" y="130" class="card-body">€0,00'.</text>
<circle cx="18" cy="146" r="2.5" fill="#15803d"/>
<text x="27" y="150" class="card-body">Eliminazione di formule giuridiche minacciose.</text>
</g>

            <g filter="url(#card-shadow)" transform="translate(1604, 747)">
              <rect x="0" y="0" width="380" height="210" rx="10" fill="#ffffff" stroke="#e2e8f0" stroke-width="1.3"/>
              <rect x="14" y="14" width="120.0" height="20" rx="5" fill="#dcfce7"/>
              <text x="22" y="28" class="badge-txt" fill="#15803d">UI HPHP FRONTEND</text>
              <text x="14" y="52" class="card-title">Dialog Protettivo Reversibile</text>
              <line x1="14" y1="60" x2="366" y2="60" stroke="#f1f5f9" stroke-width="1.2"/>
            
<circle cx="18" cy="74" r="2.5" fill="#15803d"/>
<text x="27" y="78" class="card-body">Modale modale con focus sul pulsante di sicurezza.</text>
<circle cx="18" cy="94" r="2.5" fill="#15803d"/>
<text x="27" y="98" class="card-body">Dicitura rassicurante: 'Liberando il posto aiuti</text>
<text x="27" y="114" class="card-body">altri cittadini'.</text>
<circle cx="18" cy="130" r="2.5" fill="#15803d"/>
<text x="27" y="134" class="card-body">Animazione morbida di transizione post-click.</text>
</g>

            <g filter="url(#card-shadow)" transform="translate(2002, 747)">
              <rect x="0" y="0" width="380" height="210" rx="10" fill="#ffffff" stroke="#e2e8f0" stroke-width="1.3"/>
              <rect x="14" y="14" width="120.0" height="20" rx="5" fill="#dcfce7"/>
              <text x="22" y="28" class="badge-txt" fill="#15803d">UI HPHP FRONTEND</text>
              <text x="14" y="52" class="card-title">Banner Ripensamento Interattivo</text>
              <line x1="14" y1="60" x2="366" y2="60" stroke="#f1f5f9" stroke-width="1.2"/>
            
<circle cx="18" cy="74" r="2.5" fill="#15803d"/>
<text x="27" y="78" class="card-body">Countdown visivo sempre accessibile in testata.</text>
<circle cx="18" cy="94" r="2.5" fill="#15803d"/>
<text x="27" y="98" class="card-body">Singolo tocco per annullare la cancellazione.</text>
<circle cx="18" cy="114" r="2.5" fill="#15803d"/>
<text x="27" y="118" class="card-body">Ripristino istantaneo dello stato senza re-inserimenti.</text>
</g>

            <g filter="url(#card-shadow)" transform="translate(2400, 747)">
              <rect x="0" y="0" width="380" height="210" rx="10" fill="#ffffff" stroke="#e2e8f0" stroke-width="1.3"/>
              <rect x="14" y="14" width="120.0" height="20" rx="5" fill="#dcfce7"/>
              <text x="22" y="28" class="badge-txt" fill="#15803d">UI HPHP FRONTEND</text>
              <text x="14" y="52" class="card-title">Conferma Esito &amp; Download</text>
              <line x1="14" y1="60" x2="366" y2="60" stroke="#f1f5f9" stroke-width="1.2"/>
            
<circle cx="18" cy="74" r="2.5" fill="#15803d"/>
<text x="27" y="78" class="card-body">Schermata finale di operazione conclusa con</text>
<text x="27" y="94" class="card-body">successo.</text>
<circle cx="18" cy="110" r="2.5" fill="#15803d"/>
<text x="27" y="114" class="card-body">Codice di protocollo cancellazione in evidenza.</text>
<circle cx="18" cy="130" r="2.5" fill="#15803d"/>
<text x="27" y="134" class="card-body">Pulsante 'Scarica attestato discarico CUP'.</text>
</g>

            <g filter="url(#card-shadow)" transform="translate(410, 1003)">
              <rect x="0" y="0" width="380" height="210" rx="10" fill="#ffffff" stroke="#e2e8f0" stroke-width="1.3"/>
              <rect x="14" y="14" width="146.0" height="20" rx="5" fill="#fef3c7"/>
              <text x="22" y="28" class="badge-txt" fill="#b45309">SERVER HPHP &amp; ENGINE</text>
              <text x="14" y="52" class="card-title">Interrogazione Federata Agende</text>
              <line x1="14" y1="60" x2="366" y2="60" stroke="#f1f5f9" stroke-width="1.2"/>
            
<circle cx="18" cy="74" r="2.5" fill="#b45309"/>
<text x="27" y="78" class="card-body">Query aggregata al cluster dei server CUP provinciali.</text>
<circle cx="18" cy="94" r="2.5" fill="#b45309"/>
<text x="27" y="98" class="card-body">Sincronizzazione in tempo reale dello stato</text>
<text x="27" y="114" class="card-body">appuntamenti.</text>
<circle cx="18" cy="130" r="2.5" fill="#b45309"/>
<text x="27" y="134" class="card-body">Cache locale sicura protetta da timeout improvvisi.</text>
</g>

            <g filter="url(#card-shadow)" transform="translate(808, 1003)">
              <rect x="0" y="0" width="380" height="210" rx="10" fill="#ffffff" stroke="#e2e8f0" stroke-width="1.3"/>
              <rect x="14" y="14" width="146.0" height="20" rx="5" fill="#fef3c7"/>
              <text x="22" y="28" class="badge-txt" fill="#b45309">SERVER HPHP &amp; ENGINE</text>
              <text x="14" y="52" class="card-title">Verifica Parametri Prenotazione</text>
              <line x1="14" y1="60" x2="366" y2="60" stroke="#f1f5f9" stroke-width="1.2"/>
            
<circle cx="18" cy="74" r="2.5" fill="#b45309"/>
<text x="27" y="78" class="card-body">Estrazione identificativo ricetta NRE e codice</text>
<text x="27" y="94" class="card-body">prestazione.</text>
<circle cx="18" cy="110" r="2.5" fill="#b45309"/>
<text x="27" y="114" class="card-body">Verifica vincoli di cancellabilità legati alla</text>
<text x="27" y="130" class="card-body">data.</text>
<circle cx="18" cy="146" r="2.5" fill="#b45309"/>
<text x="27" y="150" class="card-body">Preparazione stato transazionale di revoca.</text>
</g>

            <g filter="url(#card-shadow)" transform="translate(1206, 1003)">
              <rect x="0" y="0" width="380" height="210" rx="10" fill="#ffffff" stroke="#e2e8f0" stroke-width="1.3"/>
              <rect x="14" y="14" width="146.0" height="20" rx="5" fill="#fef3c7"/>
              <text x="22" y="28" class="badge-txt" fill="#b45309">SERVER HPHP &amp; ENGINE</text>
              <text x="14" y="52" class="card-title">Calcolo Preavviso &amp; Malus</text>
              <line x1="14" y1="60" x2="366" y2="60" stroke="#f1f5f9" stroke-width="1.2"/>
            
<circle cx="18" cy="74" r="2.5" fill="#b45309"/>
<text x="27" y="78" class="card-body">Algoritmo di verifica dei 2 giorni lavorativi</text>
<text x="27" y="94" class="card-body">utili.</text>
<circle cx="18" cy="110" r="2.5" fill="#b45309"/>
<text x="27" y="114" class="card-body">Controllo festività e orari di chiusura regionali.</text>
<circle cx="18" cy="130" r="2.5" fill="#b45309"/>
<text x="27" y="134" class="card-body">Generazione flag esenzione penalità pecuniaria.</text>
</g>

            <g filter="url(#card-shadow)" transform="translate(1604, 1003)">
              <rect x="0" y="0" width="380" height="210" rx="10" fill="#ffffff" stroke="#e2e8f0" stroke-width="1.3"/>
              <rect x="14" y="14" width="146.0" height="20" rx="5" fill="#fef3c7"/>
              <text x="22" y="28" class="badge-txt" fill="#b45309">SERVER HPHP &amp; ENGINE</text>
              <text x="14" y="52" class="card-title">Holding Buffer (Stato Sospeso)</text>
              <line x1="14" y1="60" x2="366" y2="60" stroke="#f1f5f9" stroke-width="1.2"/>
            
<circle cx="18" cy="74" r="2.5" fill="#b45309"/>
<text x="27" y="78" class="card-body">Imposizione stato 'Disdetta in attesa' (Holding</text>
<text x="27" y="94" class="card-body">Buffer).</text>
<circle cx="18" cy="110" r="2.5" fill="#b45309"/>
<text x="27" y="114" class="card-body">Lo slot non viene ancora rilasciato all'esterno.</text>
<circle cx="18" cy="130" r="2.5" fill="#b45309"/>
<text x="27" y="134" class="card-body">Avvio timer interno asincrono di 10 minuti (REQ-05).</text>
</g>

            <g filter="url(#card-shadow)" transform="translate(2002, 1003)">
              <rect x="0" y="0" width="380" height="210" rx="10" fill="#ffffff" stroke="#e2e8f0" stroke-width="1.3"/>
              <rect x="14" y="14" width="146.0" height="20" rx="5" fill="#fef3c7"/>
              <text x="22" y="28" class="badge-txt" fill="#b45309">SERVER HPHP &amp; ENGINE</text>
              <text x="14" y="52" class="card-title">Monitoraggio Finestra Temporale</text>
              <line x1="14" y1="60" x2="366" y2="60" stroke="#f1f5f9" stroke-width="1.2"/>
            
<circle cx="18" cy="74" r="2.5" fill="#b45309"/>
<text x="27" y="78" class="card-body">Se l'utente preme 'Annulla': ripristino immediato</text>
<text x="27" y="94" class="card-body">slot.</text>
<circle cx="18" cy="110" r="2.5" fill="#b45309"/>
<text x="27" y="114" class="card-body">Se il timer scade: rilascio evento commit di</text>
<text x="27" y="130" class="card-body">cancellazione.</text>
<circle cx="18" cy="146" r="2.5" fill="#b45309"/>
<text x="27" y="150" class="card-body">Aggiornamento stato interno su database HPHP.</text>
</g>

            <g filter="url(#card-shadow)" transform="translate(2400, 1003)">
              <rect x="0" y="0" width="380" height="210" rx="10" fill="#ffffff" stroke="#e2e8f0" stroke-width="1.3"/>
              <rect x="14" y="14" width="165.5" height="20" rx="5" fill="#fef3c7"/>
              <text x="22" y="28" class="badge-txt" fill="#b45309">NOTIFICATION DISPATCHER</text>
              <text x="14" y="52" class="card-title">Commit Finale &amp; Dispacciamento</text>
              <line x1="14" y1="60" x2="366" y2="60" stroke="#f1f5f9" stroke-width="1.2"/>
            
<circle cx="18" cy="74" r="2.5" fill="#b45309"/>
<text x="27" y="78" class="card-body">Chiamata sincrona di cancellazione definitiva</text>
<text x="27" y="94" class="card-body">su CUP.</text>
<circle cx="18" cy="110" r="2.5" fill="#b45309"/>
<text x="27" y="114" class="card-body">Richiesta annullamento posizione debitoria su</text>
<text x="27" y="130" class="card-body">PagoPA.</text>
<circle cx="18" cy="146" r="2.5" fill="#b45309"/>
<text x="27" y="150" class="card-body">Inoltro SMS bilaterale ad assistito e caregiver.</text>
</g>

            <g filter="url(#card-shadow)" transform="translate(410, 1259)">
              <rect x="0" y="0" width="380" height="210" rx="10" fill="#ffffff" stroke="#e2e8f0" stroke-width="1.3"/>
              <rect x="14" y="14" width="152.5" height="20" rx="5" fill="#fee2e2"/>
              <text x="22" y="28" class="badge-txt" fill="#b91c1c">CLUSTER CUP REGIONALE</text>
              <text x="14" y="52" class="card-title">SOSETE / CUP 2000 Regionale</text>
              <line x1="14" y1="60" x2="366" y2="60" stroke="#f1f5f9" stroke-width="1.2"/>
            
<circle cx="18" cy="74" r="2.5" fill="#b91c1c"/>
<text x="27" y="78" class="card-body">Verifica validità prenotazione attiva su agenda</text>
<text x="27" y="94" class="card-body">AUSL.</text>
<circle cx="18" cy="110" r="2.5" fill="#b91c1c"/>
<text x="27" y="114" class="card-body">Ricezione richiesta preliminare di disdetta.</text>
<circle cx="18" cy="130" r="2.5" fill="#b91c1c"/>
<text x="27" y="134" class="card-body">Mantenimento lock protetto per 10 minuti.</text>
</g>

            <g filter="url(#card-shadow)" transform="translate(808, 1259)">
              <rect x="0" y="0" width="380" height="210" rx="10" fill="#ffffff" stroke="#e2e8f0" stroke-width="1.3"/>
              <rect x="14" y="14" width="198.0" height="20" rx="5" fill="#fee2e2"/>
              <text x="22" y="28" class="badge-txt" fill="#b91c1c">REGOLAMENTO TICKET REGIONALE</text>
              <text x="14" y="52" class="card-title">Motore Sanzioni e Preavviso</text>
              <line x1="14" y1="60" x2="366" y2="60" stroke="#f1f5f9" stroke-width="1.2"/>
            
<circle cx="18" cy="74" r="2.5" fill="#b91c1c"/>
<text x="27" y="78" class="card-body">Controllo rispetto DGR Emilia-Romagna disdette.</text>
<circle cx="18" cy="94" r="2.5" fill="#b91c1c"/>
<text x="27" y="98" class="card-body">Validazione assenza sanzione amministrativa</text>
<text x="27" y="114" class="card-body">(malus).</text>
<circle cx="18" cy="130" r="2.5" fill="#b91c1c"/>
<text x="27" y="134" class="card-body">Invio esito conformità al sistema HPHP.</text>
</g>

            <g filter="url(#card-shadow)" transform="translate(1206, 1259)">
              <rect x="0" y="0" width="380" height="210" rx="10" fill="#ffffff" stroke="#e2e8f0" stroke-width="1.3"/>
              <rect x="14" y="14" width="172.0" height="20" rx="5" fill="#fee2e2"/>
              <text x="22" y="28" class="badge-txt" fill="#b91c1c">GATEWAY PAGOPA REGIONALE</text>
              <text x="14" y="52" class="card-title">Verifica Posizione Debitoria</text>
              <line x1="14" y1="60" x2="366" y2="60" stroke="#f1f5f9" stroke-width="1.2"/>
            
<circle cx="18" cy="74" r="2.5" fill="#b91c1c"/>
<text x="27" y="78" class="card-body">Controllo stato avviso di pagamento pagoPA generato.</text>
<circle cx="18" cy="94" r="2.5" fill="#b91c1c"/>
<text x="27" y="98" class="card-body">Se non pagato: revoca immediata IUV associato.</text>
<circle cx="18" cy="114" r="2.5" fill="#b91c1c"/>
<text x="27" y="118" class="card-body">Se pagato: predisposizione procedura di rimborso.</text>
</g>

            <g filter="url(#card-shadow)" transform="translate(1604, 1259)">
              <rect x="0" y="0" width="380" height="210" rx="10" fill="#ffffff" stroke="#e2e8f0" stroke-width="1.3"/>
              <rect x="14" y="14" width="185.0" height="20" rx="5" fill="#fee2e2"/>
              <text x="22" y="28" class="badge-txt" fill="#b91c1c">BUFFER TEMPORANEO DI STATO</text>
              <text x="14" y="52" class="card-title">CUP Transaction Manager</text>
              <line x1="14" y1="60" x2="366" y2="60" stroke="#f1f5f9" stroke-width="1.2"/>
            
<circle cx="18" cy="74" r="2.5" fill="#b91c1c"/>
<text x="27" y="78" class="card-body">Mantenimento slot in stato 'Reserved-Cancelling'.</text>
<circle cx="18" cy="94" r="2.5" fill="#b91c1c"/>
<text x="27" y="98" class="card-body">Protezione da riassegnazione concorrente prematura.</text>
<circle cx="18" cy="114" r="2.5" fill="#b91c1c"/>
<text x="27" y="118" class="card-body">Garanzia di ripristino immediato a costo zero.</text>
</g>

            <g filter="url(#card-shadow)" transform="translate(2002, 1259)">
              <rect x="0" y="0" width="380" height="210" rx="10" fill="#ffffff" stroke="#e2e8f0" stroke-width="1.3"/>
              <rect x="14" y="14" width="178.5" height="20" rx="5" fill="#fee2e2"/>
              <text x="22" y="28" class="badge-txt" fill="#b91c1c">MOTORE LISTE D'ATTESA CUP</text>
              <text x="14" y="52" class="card-title">Algoritmo Ricollocazione Slot</text>
              <line x1="14" y1="60" x2="366" y2="60" stroke="#f1f5f9" stroke-width="1.2"/>
            
<circle cx="18" cy="74" r="2.5" fill="#b91c1c"/>
<text x="27" y="78" class="card-body">Allo scadere dei 10 min: svincolo totale del</text>
<text x="27" y="94" class="card-body">posto.</text>
<circle cx="18" cy="110" r="2.5" fill="#b91c1c"/>
<text x="27" y="114" class="card-body">Query automatica alla lista d'attesa regionale</text>
<text x="27" y="130" class="card-body">(Recall).</text>
<circle cx="18" cy="146" r="2.5" fill="#b91c1c"/>
<text x="27" y="150" class="card-body">Assegnazione dello slot al primo cittadino in</text>
<text x="27" y="166" class="card-body">attesa.</text>
</g>

            <g filter="url(#card-shadow)" transform="translate(2400, 1259)">
              <rect x="0" y="0" width="380" height="210" rx="10" fill="#ffffff" stroke="#e2e8f0" stroke-width="1.3"/>
              <rect x="14" y="14" width="139.5" height="20" rx="5" fill="#fee2e2"/>
              <text x="22" y="28" class="badge-txt" fill="#b91c1c">FSE &amp; SMS REGIONALE</text>
              <text x="14" y="52" class="card-title">Fascicolo Sanitario &amp; Notifiche</text>
              <line x1="14" y1="60" x2="366" y2="60" stroke="#f1f5f9" stroke-width="1.2"/>
            
<circle cx="18" cy="74" r="2.5" fill="#b91c1c"/>
<text x="27" y="78" class="card-body">Aggiornamento agenda nel Fascicolo Elettronico</text>
<text x="27" y="94" class="card-body">(FSE).</text>
<circle cx="18" cy="110" r="2.5" fill="#b91c1c"/>
<text x="27" y="114" class="card-body">Chiusura pratica con tracciamento temporale.</text>
<circle cx="18" cy="130" r="2.5" fill="#b91c1c"/>
<text x="27" y="134" class="card-body">Gateway SMS del Servizio Sanitario Regionale.</text>
</g>
<path d="M 1954 676 C 2014 978, 1982 1008, 2042 1093.0" 
          fill="none" stroke="#ea580c" stroke-width="2.5" stroke-dasharray="6 4" marker-end="url(#arrow-orange)" />
    <path d="M 2342 1208 C 2412 1234, 2380 1264, 2440 1349.0" 
          fill="none" stroke="#dc2626" stroke-width="2.5" stroke-dasharray="6 4" marker-end="url(#arrow-blue)" />

    <g transform="translate(40, 1635)">
      <text x="10" y="20" font-size="12" font-weight="600" fill="#64748b">UUXD Master Degree — Project Team Affordance (HPHP) — A.A. 2025/2026</text>
      <text x="2710" y="20" font-size="12" font-weight="600" fill="#64748b" text-anchor="end">Fase C: Proposta di Design — Service Blueprint 02 (Strada B: Ecosistema di Servizio)</text>
    </g>
    </svg>